<svg xmlns="http://www.w3.org/2000/svg" viewBox="0 0 617.1 579.49"><defs><style>.cls-1{fill:#fff;}</style></defs><title>Asset 2xhdpi</title><g id="Layer_2" data-name="Layer 2"><g id="Layer_1-2" data-name="Layer 1"><path class="cls-1" d="M617.1,246c0,103-3,80-3,80s-6,119-121.5,142.5c0,0-15,83-75,111,0,0,29-78,6-105,0,0-207.09,7.68-280.5-1.5-72-9-112-52-126-92C-12.59,280.35,5.91,151.2,3.6,161.49c0,0-3.5-152.5,186-159C321.84-2,438.1,1,438.1,1s140-4,170,131C608.1,132,617.1,179.28,617.1,246Z"/></g></g></svg>